#N canvas 0 22 720 829 10;
#X obj 45 48 cnv 15 397 275 empty empty simul_from_serial 20 12 0 14
-261338 -66577 0;
#X floatatom 265 39 5 0 0 0 - - -, f 5;
#X obj 266 88 int;
#X floatatom 266 163 5 0 0 0 - - -, f 5;
#X floatatom 312 163 5 0 0 0 - - -, f 5;
#X obj 223 216 pack f f f;
#X msg 230 163 255;
#X obj 312 66 % 255;
#X obj 266 66 / 255;
#X obj 310 189 list;
#X obj 311 216 list;
#X obj 310 243 unpack f f f;
#X floatatom 394 286 5 0 0 0 - - -, f 5;
#X floatatom 352 286 5 0 0 0 - - -, f 5;
#X floatatom 310 286 5 0 0 0 - - -, f 5;
#X obj 56 230 until;
#X obj 158 274 bang;
#X obj 56 252 list append;
#X obj 56 274 list split 1;
#X obj 56 185 t b l;
#X text 82 298 serializer;
#X obj 60 85 bng 15 250 50 0 empty empty empty 17 7 0 10 -262144 -1
-1;
#X obj 293 97 vradio 15 0 0 3 empty empty empty 0 -8 0 10 -262144 -1
-1 0;
#X obj 549 63 r R1;
#X obj 749 65 r R2;
#X obj 950 66 r R3;
#X obj 551 286 r R4;
#X obj 750 286 r R5;
#X obj 951 286 r R6;
#X obj 75 368 vradio 20 0 0 6 empty empty empty 0 -8 0 10 -262144 -1
-1 2;
#X text 102 367 ROUTE 1;
#X text 102 388 ROUTE 2;
#X text 102 409 ROUTE 3;
#X text 102 430 ROUTE 4;
#X text 102 451 ROUTE 5;
#X obj 184 411 list prepend;
#X obj 184 374 t a b;
#X floatatom 268 412 5 0 0 0 - - -, f 5;
#X obj 184 458 route 0 1 2 3 4 5;
#X obj 184 493 s R1;
#X obj 200 513 s R2;
#X obj 217 533 s R3;
#X obj 234 553 s R4;
#X obj 251 573 s R5;
#X obj 268 593 s R6;
#X text 102 472 ROUTE 6;
#N canvas 322 311 450 438 com 0;
#X msg 157 135 open 1;
#X msg 157 161 close 1;
#X obj 157 213 outlet;
#X obj 80 128 bng 15 250 50 0 empty empty empty 17 7 0 10 -262144 -1
-1;
#X obj 80 153 bng 15 250 50 0 empty empty empty 17 7 0 10 -262144 -1
-1;
#X text 103 126 Open;
#X text 103 151 Close;
#X text 84 103 Serial;
#X msg 159 100 devices;
#X obj 157 187 comport 1 57600;
#X connect 0 0 9 0;
#X connect 1 0 9 0;
#X connect 3 0 0 0;
#X connect 4 0 1 0;
#X connect 8 0 9 0;
#X connect 9 0 2 0;
#X coords 0 -1 1 1 88 88 2 62 92;
#X restore 348 358 pd com;
#N canvas 297 175 450 607 chvalue 0;
#X obj 70 10 sel 255;
#X obj 497 57 bng 15 250 50 0 empty empty empty 17 7 0 10 -262144 -1
-1;
#X obj 70 -25 inlet;
#X text 522 57 data coming in;
#X obj 497 79 bng 15 250 50 0 empty empty empty 17 7 0 10 -262144 -1
-1;
#X obj 497 101 bng 15 250 50 0 empty empty empty 17 7 0 10 -262144
-1 -1;
#X text 522 79 channel 1;
#X text 522 101 channel 2;
#X obj 60 357 s ctlchannel1;
#X obj 164 357 s ctlvalue1;
#X obj 256 357 s ctlchannel2;
#X obj 360 357 s ctlvalue2;
#X obj 63 112 sel 128;
#X obj 231 112 sel 129;
#X obj 63 134 bng 15 250 50 0 empty empty empty 17 7 0 10 -262144 -1
-1;
#X obj 63 154 t b b;
#X obj 144 195 t a a;
#X obj 63 236 list;
#X msg 181 134 list;
#X obj 63 258 unpack f f;
#X floatatom 125 280 5 0 0 0 - - -, f 5;
#X obj 231 134 bng 15 250 50 0 empty empty empty 17 7 0 10 -262144
-1 -1;
#X obj 231 154 t b b;
#X obj 340 196 t a a;
#X obj 231 236 list;
#X msg 377 134 list;
#X obj 231 258 unpack f f;
#X floatatom 231 282 5 0 0 0 - - -, f 5;
#X floatatom 293 280 5 0 0 0 - - -, f 5;
#X obj 63 90 sel 129;
#X obj 231 90 sel 128;
#X msg 144 135 128;
#X obj 144 165 list prepend;
#X msg 340 134 129;
#X obj 340 165 list prepend;
#X obj 62 386 outlet;
#X obj 171 386 outlet;
#X obj 280 386 outlet;
#X obj 389 386 outlet;
#X floatatom 63 280 5 0 0 0 - - -, f 5;
#X obj 63 301 bng 15 250 50 0 empty empty empty 17 7 0 10 -262144 -1
-1;
#X obj 231 303 bng 15 250 50 0 empty empty empty 17 7 0 10 -262144
-1 -1;
#X floatatom 587 79 5 0 0 0 - - -, f 5;
#X floatatom 587 101 5 0 0 0 - - -, f 5;
#X obj 356 -19 inlet;
#X obj 666 90 + 1;
#X connect 0 0 1 0;
#X connect 0 1 29 0;
#X connect 0 1 30 0;
#X connect 2 0 0 0;
#X connect 12 0 14 0;
#X connect 12 0 31 0;
#X connect 12 0 4 0;
#X connect 12 1 32 0;
#X connect 13 0 21 0;
#X connect 13 0 33 0;
#X connect 13 0 5 0;
#X connect 13 1 34 0;
#X connect 14 0 15 0;
#X connect 15 0 17 0;
#X connect 15 1 18 0;
#X connect 16 0 17 1;
#X connect 16 1 32 1;
#X connect 17 0 19 0;
#X connect 18 0 32 1;
#X connect 19 0 39 0;
#X connect 19 1 20 0;
#X connect 20 0 36 0;
#X connect 21 0 22 0;
#X connect 22 0 24 0;
#X connect 22 1 25 0;
#X connect 23 0 24 1;
#X connect 23 1 34 1;
#X connect 24 0 26 0;
#X connect 25 0 34 1;
#X connect 26 0 27 0;
#X connect 26 1 28 0;
#X connect 27 0 41 0;
#X connect 28 0 38 0;
#X connect 29 1 12 0;
#X connect 30 1 13 0;
#X connect 31 0 32 0;
#X connect 32 0 16 0;
#X connect 33 0 34 0;
#X connect 34 0 23 0;
#X connect 39 0 40 0;
#X connect 40 0 42 0;
#X connect 41 0 43 0;
#X connect 42 0 35 0;
#X connect 42 0 45 0;
#X connect 43 0 37 0;
#X connect 44 0 42 0;
#X connect 45 0 43 0;
#X coords 0 -1 1 1 156 84 2 474 44;
#X restore 554 93 pd chvalue selector;
#X floatatom 554 188 5 0 0 0 - - -, f 5;
#X floatatom 601 188 5 0 0 0 - - -, f 5;
#X floatatom 647 188 5 0 0 0 - - -, f 5;
#X floatatom 695 188 5 0 0 0 - - -, f 5;
#X obj 350 468 print;
#N canvas 362 105 450 607 chvalue 0;
#X obj 70 10 sel 255;
#X obj 497 57 bng 15 250 50 0 empty empty empty 17 7 0 10 -262144 -1
-1;
#X obj 70 -25 inlet;
#X text 522 57 data coming in;
#X obj 497 79 bng 15 250 50 0 empty empty empty 17 7 0 10 -262144 -1
-1;
#X obj 497 101 bng 15 250 50 0 empty empty empty 17 7 0 10 -262144
-1 -1;
#X text 522 79 channel 1;
#X text 522 101 channel 2;
#X obj 60 357 s ctlchannel1;
#X obj 164 357 s ctlvalue1;
#X obj 256 357 s ctlchannel2;
#X obj 360 357 s ctlvalue2;
#X obj 63 112 sel 128;
#X obj 231 112 sel 129;
#X obj 63 134 bng 15 250 50 0 empty empty empty 17 7 0 10 -262144 -1
-1;
#X obj 63 154 t b b;
#X obj 144 195 t a a;
#X obj 63 236 list;
#X msg 181 134 list;
#X obj 63 258 unpack f f;
#X floatatom 125 280 5 0 0 0 - - -, f 5;
#X obj 231 134 bng 15 250 50 0 empty empty empty 17 7 0 10 -262144
-1 -1;
#X obj 231 154 t b b;
#X obj 340 196 t a a;
#X obj 231 236 list;
#X msg 377 134 list;
#X obj 231 258 unpack f f;
#X floatatom 231 282 5 0 0 0 - - -, f 5;
#X floatatom 293 280 5 0 0 0 - - -, f 5;
#X obj 63 90 sel 129;
#X obj 231 90 sel 128;
#X msg 144 135 128;
#X obj 144 165 list prepend;
#X msg 340 134 129;
#X obj 340 165 list prepend;
#X obj 62 386 outlet;
#X obj 171 386 outlet;
#X obj 280 386 outlet;
#X obj 389 386 outlet;
#X floatatom 63 280 5 0 0 0 - - -, f 5;
#X obj 63 301 bng 15 250 50 0 empty empty empty 17 7 0 10 -262144 -1
-1;
#X obj 231 303 bng 15 250 50 0 empty empty empty 17 7 0 10 -262144
-1 -1;
#X floatatom 587 79 5 0 0 0 - - -, f 5;
#X floatatom 587 101 5 0 0 0 - - -, f 5;
#X obj 333 -25 inlet;
#X obj 541 -10 + 1;
#X connect 0 0 1 0;
#X connect 0 1 29 0;
#X connect 0 1 30 0;
#X connect 2 0 0 0;
#X connect 12 0 14 0;
#X connect 12 0 31 0;
#X connect 12 0 4 0;
#X connect 12 1 32 0;
#X connect 13 0 21 0;
#X connect 13 0 33 0;
#X connect 13 0 5 0;
#X connect 13 1 34 0;
#X connect 14 0 15 0;
#X connect 15 0 17 0;
#X connect 15 1 18 0;
#X connect 16 0 17 1;
#X connect 16 1 32 1;
#X connect 17 0 19 0;
#X connect 18 0 32 1;
#X connect 19 0 39 0;
#X connect 19 1 20 0;
#X connect 20 0 36 0;
#X connect 21 0 22 0;
#X connect 22 0 24 0;
#X connect 22 1 25 0;
#X connect 23 0 24 1;
#X connect 23 1 34 1;
#X connect 24 0 26 0;
#X connect 25 0 34 1;
#X connect 26 0 27 0;
#X connect 26 1 28 0;
#X connect 27 0 41 0;
#X connect 28 0 38 0;
#X connect 29 1 12 0;
#X connect 30 1 13 0;
#X connect 31 0 32 0;
#X connect 32 0 16 0;
#X connect 33 0 34 0;
#X connect 34 0 23 0;
#X connect 39 0 40 0;
#X connect 40 0 42 0;
#X connect 41 0 43 0;
#X connect 42 0 35 0;
#X connect 42 0 45 0;
#X connect 43 0 37 0;
#X connect 44 0 42 0;
#X connect 45 0 43 0;
#X coords 0 -1 1 1 156 84 2 474 44;
#X restore 752 92 pd chvalue selector;
#X floatatom 752 187 5 0 0 0 - - -, f 5;
#X floatatom 799 187 5 0 0 0 - - -, f 5;
#X floatatom 846 187 5 0 0 0 - - -, f 5;
#X floatatom 893 187 5 0 0 0 - - -, f 5;
#N canvas 156 98 658 630 chvalue 0;
#X obj 70 10 sel 255;
#X obj 497 57 bng 15 250 50 0 empty empty empty 17 7 0 10 -262144 -1
-1;
#X obj 70 -25 inlet;
#X text 522 57 data coming in;
#X obj 497 79 bng 15 250 50 0 empty empty empty 17 7 0 10 -262144 -1
-1;
#X obj 497 101 bng 15 250 50 0 empty empty empty 17 7 0 10 -262144
-1 -1;
#X text 522 79 channel 1;
#X text 522 101 channel 2;
#X obj 60 357 s ctlchannel1;
#X obj 164 357 s ctlvalue1;
#X obj 256 357 s ctlchannel2;
#X obj 360 357 s ctlvalue2;
#X obj 63 112 sel 128;
#X obj 231 112 sel 129;
#X obj 63 134 bng 15 250 50 0 empty empty empty 17 7 0 10 -262144 -1
-1;
#X obj 63 154 t b b;
#X obj 144 195 t a a;
#X obj 63 236 list;
#X msg 181 134 list;
#X obj 63 258 unpack f f;
#X floatatom 125 280 5 0 0 0 - - -, f 5;
#X obj 231 134 bng 15 250 50 0 empty empty empty 17 7 0 10 -262144
-1 -1;
#X obj 231 154 t b b;
#X obj 340 196 t a a;
#X obj 231 236 list;
#X msg 377 134 list;
#X obj 231 258 unpack f f;
#X floatatom 231 282 5 0 0 0 - - -, f 5;
#X floatatom 293 280 5 0 0 0 - - -, f 5;
#X obj 63 90 sel 129;
#X obj 231 90 sel 128;
#X msg 144 135 128;
#X obj 144 165 list prepend;
#X msg 340 134 129;
#X obj 340 165 list prepend;
#X obj 62 386 outlet;
#X obj 171 386 outlet;
#X obj 280 386 outlet;
#X obj 389 386 outlet;
#X floatatom 63 280 5 0 0 0 - - -, f 5;
#X obj 63 301 bng 15 250 50 0 empty empty empty 17 7 0 10 -262144 -1
-1;
#X obj 231 303 bng 15 250 50 0 empty empty empty 17 7 0 10 -262144
-1 -1;
#X floatatom 587 79 5 0 0 0 - - -, f 5;
#X floatatom 587 101 5 0 0 0 - - -, f 5;
#X obj 415 -19 inlet;
#X obj 623 -4 + 1;
#X connect 0 0 1 0;
#X connect 0 1 29 0;
#X connect 0 1 30 0;
#X connect 2 0 0 0;
#X connect 12 0 14 0;
#X connect 12 0 31 0;
#X connect 12 0 4 0;
#X connect 12 1 32 0;
#X connect 13 0 21 0;
#X connect 13 0 33 0;
#X connect 13 0 5 0;
#X connect 13 1 34 0;
#X connect 14 0 15 0;
#X connect 15 0 17 0;
#X connect 15 1 18 0;
#X connect 16 0 17 1;
#X connect 16 1 32 1;
#X connect 17 0 19 0;
#X connect 18 0 32 1;
#X connect 19 0 39 0;
#X connect 19 1 20 0;
#X connect 20 0 36 0;
#X connect 21 0 22 0;
#X connect 22 0 24 0;
#X connect 22 1 25 0;
#X connect 23 0 24 1;
#X connect 23 1 34 1;
#X connect 24 0 26 0;
#X connect 25 0 34 1;
#X connect 26 0 27 0;
#X connect 26 1 28 0;
#X connect 27 0 41 0;
#X connect 28 0 38 0;
#X connect 29 1 12 0;
#X connect 30 1 13 0;
#X connect 31 0 32 0;
#X connect 32 0 16 0;
#X connect 33 0 34 0;
#X connect 34 0 23 0;
#X connect 39 0 40 0;
#X connect 40 0 42 0;
#X connect 41 0 43 0;
#X connect 42 0 35 0;
#X connect 42 0 45 0;
#X connect 43 0 37 0;
#X connect 44 0 42 0;
#X connect 45 0 43 0;
#X coords 0 -1 1 1 156 84 2 474 44;
#X restore 943 92 pd chvalue selector;
#X floatatom 943 187 5 0 0 0 - - -, f 5;
#X floatatom 990 187 5 0 0 0 - - -, f 5;
#X floatatom 1037 187 5 0 0 0 - - -, f 5;
#X floatatom 1084 187 5 0 0 0 - - -, f 5;
#N canvas 732 38 450 584 chvalue 0;
#X obj 70 10 sel 255;
#X obj 497 57 bng 15 250 50 0 empty empty empty 17 7 0 10 -262144 -1
-1;
#X obj 70 -25 inlet;
#X text 522 57 data coming in;
#X obj 497 79 bng 15 250 50 0 empty empty empty 17 7 0 10 -262144 -1
-1;
#X obj 497 101 bng 15 250 50 0 empty empty empty 17 7 0 10 -262144
-1 -1;
#X text 522 79 channel 1;
#X text 522 101 channel 2;
#X obj 60 357 s ctlchannel1;
#X obj 164 357 s ctlvalue1;
#X obj 256 357 s ctlchannel2;
#X obj 360 357 s ctlvalue2;
#X obj 63 112 sel 128;
#X obj 231 112 sel 129;
#X obj 63 134 bng 15 250 50 0 empty empty empty 17 7 0 10 -262144 -1
-1;
#X obj 63 154 t b b;
#X obj 144 195 t a a;
#X obj 63 236 list;
#X msg 181 134 list;
#X obj 63 258 unpack f f;
#X floatatom 125 280 5 0 0 0 - - -, f 5;
#X obj 231 134 bng 15 250 50 0 empty empty empty 17 7 0 10 -262144
-1 -1;
#X obj 231 154 t b b;
#X obj 340 196 t a a;
#X obj 231 236 list;
#X msg 377 134 list;
#X obj 231 258 unpack f f;
#X floatatom 231 282 5 0 0 0 - - -, f 5;
#X floatatom 293 280 5 0 0 0 - - -, f 5;
#X obj 63 90 sel 129;
#X obj 231 90 sel 128;
#X msg 144 135 128;
#X obj 144 165 list prepend;
#X msg 340 134 129;
#X obj 340 165 list prepend;
#X obj 62 386 outlet;
#X obj 171 386 outlet;
#X obj 280 386 outlet;
#X obj 389 386 outlet;
#X floatatom 63 280 5 0 0 0 - - -, f 5;
#X obj 63 301 bng 15 250 50 0 empty empty empty 17 7 0 10 -262144 -1
-1;
#X obj 231 303 bng 15 250 50 0 empty empty empty 17 7 0 10 -262144
-1 -1;
#X floatatom 587 79 5 0 0 0 - - -, f 5;
#X floatatom 587 101 5 0 0 0 - - -, f 5;
#X obj 399 -26 inlet;
#X obj 620 87 + 1;
#X connect 0 0 1 0;
#X connect 0 1 29 0;
#X connect 0 1 30 0;
#X connect 2 0 0 0;
#X connect 12 0 14 0;
#X connect 12 0 31 0;
#X connect 12 0 4 0;
#X connect 12 1 32 0;
#X connect 13 0 21 0;
#X connect 13 0 33 0;
#X connect 13 0 5 0;
#X connect 13 1 34 0;
#X connect 14 0 15 0;
#X connect 15 0 17 0;
#X connect 15 1 18 0;
#X connect 16 0 17 1;
#X connect 16 1 32 1;
#X connect 17 0 19 0;
#X connect 18 0 32 1;
#X connect 19 0 39 0;
#X connect 19 1 20 0;
#X connect 20 0 36 0;
#X connect 21 0 22 0;
#X connect 22 0 24 0;
#X connect 22 1 25 0;
#X connect 23 0 24 1;
#X connect 23 1 34 1;
#X connect 24 0 26 0;
#X connect 25 0 34 1;
#X connect 26 0 27 0;
#X connect 26 1 28 0;
#X connect 27 0 41 0;
#X connect 28 0 38 0;
#X connect 29 1 12 0;
#X connect 30 1 13 0;
#X connect 31 0 32 0;
#X connect 32 0 16 0;
#X connect 33 0 34 0;
#X connect 34 0 23 0;
#X connect 39 0 40 0;
#X connect 40 0 42 0;
#X connect 41 0 43 0;
#X connect 42 0 35 0;
#X connect 42 0 45 0;
#X connect 43 0 37 0;
#X connect 44 0 42 0;
#X connect 45 0 43 0;
#X coords 0 -1 1 1 156 84 2 474 44;
#X restore 553 309 pd chvalue selector;
#X floatatom 553 404 5 0 0 0 - - -, f 5;
#X floatatom 600 404 5 0 0 0 - - -, f 5;
#X floatatom 647 404 5 0 0 0 - - -, f 5;
#X floatatom 694 404 5 0 0 0 - - -, f 5;
#N canvas 732 38 450 584 chvalue 0;
#X obj 70 10 sel 255;
#X obj 497 57 bng 15 250 50 0 empty empty empty 17 7 0 10 -262144 -1
-1;
#X obj 70 -25 inlet;
#X text 522 57 data coming in;
#X obj 497 79 bng 15 250 50 0 empty empty empty 17 7 0 10 -262144 -1
-1;
#X obj 497 101 bng 15 250 50 0 empty empty empty 17 7 0 10 -262144
-1 -1;
#X text 522 79 channel 1;
#X text 522 101 channel 2;
#X obj 60 357 s ctlchannel1;
#X obj 164 357 s ctlvalue1;
#X obj 256 357 s ctlchannel2;
#X obj 360 357 s ctlvalue2;
#X obj 63 112 sel 128;
#X obj 231 112 sel 129;
#X obj 63 134 bng 15 250 50 0 empty empty empty 17 7 0 10 -262144 -1
-1;
#X obj 63 154 t b b;
#X obj 144 195 t a a;
#X obj 63 236 list;
#X msg 181 134 list;
#X obj 63 258 unpack f f;
#X floatatom 125 280 5 0 0 0 - - -, f 5;
#X obj 231 134 bng 15 250 50 0 empty empty empty 17 7 0 10 -262144
-1 -1;
#X obj 231 154 t b b;
#X obj 340 196 t a a;
#X obj 231 236 list;
#X msg 377 134 list;
#X obj 231 258 unpack f f;
#X floatatom 231 282 5 0 0 0 - - -, f 5;
#X floatatom 293 280 5 0 0 0 - - -, f 5;
#X obj 63 90 sel 129;
#X obj 231 90 sel 128;
#X msg 144 135 128;
#X obj 144 165 list prepend;
#X msg 340 134 129;
#X obj 340 165 list prepend;
#X obj 62 386 outlet;
#X obj 171 386 outlet;
#X obj 280 386 outlet;
#X obj 389 386 outlet;
#X floatatom 63 280 5 0 0 0 - - -, f 5;
#X obj 63 301 bng 15 250 50 0 empty empty empty 17 7 0 10 -262144 -1
-1;
#X obj 231 303 bng 15 250 50 0 empty empty empty 17 7 0 10 -262144
-1 -1;
#X floatatom 587 79 5 0 0 0 - - -, f 5;
#X floatatom 587 101 5 0 0 0 - - -, f 5;
#X obj 451 -26 inlet;
#X obj 656 4 + 1;
#X connect 0 0 1 0;
#X connect 0 1 29 0;
#X connect 0 1 30 0;
#X connect 2 0 0 0;
#X connect 12 0 14 0;
#X connect 12 0 31 0;
#X connect 12 0 4 0;
#X connect 12 1 32 0;
#X connect 13 0 21 0;
#X connect 13 0 33 0;
#X connect 13 0 5 0;
#X connect 13 1 34 0;
#X connect 14 0 15 0;
#X connect 15 0 17 0;
#X connect 15 1 18 0;
#X connect 16 0 17 1;
#X connect 16 1 32 1;
#X connect 17 0 19 0;
#X connect 18 0 32 1;
#X connect 19 0 39 0;
#X connect 19 1 20 0;
#X connect 20 0 36 0;
#X connect 21 0 22 0;
#X connect 22 0 24 0;
#X connect 22 1 25 0;
#X connect 23 0 24 1;
#X connect 23 1 34 1;
#X connect 24 0 26 0;
#X connect 25 0 34 1;
#X connect 26 0 27 0;
#X connect 26 1 28 0;
#X connect 27 0 41 0;
#X connect 28 0 38 0;
#X connect 29 1 12 0;
#X connect 30 1 13 0;
#X connect 31 0 32 0;
#X connect 32 0 16 0;
#X connect 33 0 34 0;
#X connect 34 0 23 0;
#X connect 39 0 40 0;
#X connect 40 0 42 0;
#X connect 41 0 43 0;
#X connect 42 0 35 0;
#X connect 42 0 45 0;
#X connect 43 0 37 0;
#X connect 44 0 42 0;
#X connect 45 0 43 0;
#X coords 0 -1 1 1 156 84 2 474 44;
#X restore 753 308 pd chvalue selector;
#X floatatom 753 403 5 0 0 0 - - -, f 5;
#X floatatom 801 403 5 0 0 0 - - -, f 5;
#X floatatom 847 403 5 0 0 0 - - -, f 5;
#X floatatom 894 403 5 0 0 0 - - -, f 5;
#N canvas 732 38 450 584 chvalue 0;
#X obj 70 10 sel 255;
#X obj 497 57 bng 15 250 50 0 empty empty empty 17 7 0 10 -262144 -1
-1;
#X obj 70 -25 inlet;
#X text 522 57 data coming in;
#X obj 497 79 bng 15 250 50 0 empty empty empty 17 7 0 10 -262144 -1
-1;
#X obj 497 101 bng 15 250 50 0 empty empty empty 17 7 0 10 -262144
-1 -1;
#X text 522 79 channel 1;
#X text 522 101 channel 2;
#X obj 60 357 s ctlchannel1;
#X obj 164 357 s ctlvalue1;
#X obj 256 357 s ctlchannel2;
#X obj 360 357 s ctlvalue2;
#X obj 63 112 sel 128;
#X obj 231 112 sel 129;
#X obj 63 134 bng 15 250 50 0 empty empty empty 17 7 0 10 -262144 -1
-1;
#X obj 63 154 t b b;
#X obj 144 195 t a a;
#X obj 63 236 list;
#X msg 181 134 list;
#X obj 63 258 unpack f f;
#X floatatom 125 280 5 0 0 0 - - -, f 5;
#X obj 231 134 bng 15 250 50 0 empty empty empty 17 7 0 10 -262144
-1 -1;
#X obj 231 154 t b b;
#X obj 340 196 t a a;
#X obj 231 236 list;
#X msg 377 134 list;
#X obj 231 258 unpack f f;
#X floatatom 231 282 5 0 0 0 - - -, f 5;
#X floatatom 293 280 5 0 0 0 - - -, f 5;
#X obj 63 90 sel 129;
#X obj 231 90 sel 128;
#X msg 144 135 128;
#X obj 144 165 list prepend;
#X msg 340 134 129;
#X obj 340 165 list prepend;
#X obj 62 386 outlet;
#X obj 171 386 outlet;
#X obj 280 386 outlet;
#X obj 389 386 outlet;
#X floatatom 63 280 5 0 0 0 - - -, f 5;
#X obj 63 301 bng 15 250 50 0 empty empty empty 17 7 0 10 -262144 -1
-1;
#X obj 231 303 bng 15 250 50 0 empty empty empty 17 7 0 10 -262144
-1 -1;
#X floatatom 587 79 5 0 0 0 - - -, f 5;
#X floatatom 587 101 5 0 0 0 - - -, f 5;
#X obj 398 -12 inlet;
#X obj 603 18 + 1;
#X connect 0 0 1 0;
#X connect 0 1 29 0;
#X connect 0 1 30 0;
#X connect 2 0 0 0;
#X connect 12 0 14 0;
#X connect 12 0 31 0;
#X connect 12 0 4 0;
#X connect 12 1 32 0;
#X connect 13 0 21 0;
#X connect 13 0 33 0;
#X connect 13 0 5 0;
#X connect 13 1 34 0;
#X connect 14 0 15 0;
#X connect 15 0 17 0;
#X connect 15 1 18 0;
#X connect 16 0 17 1;
#X connect 16 1 32 1;
#X connect 17 0 19 0;
#X connect 18 0 32 1;
#X connect 19 0 39 0;
#X connect 19 1 20 0;
#X connect 20 0 36 0;
#X connect 21 0 22 0;
#X connect 22 0 24 0;
#X connect 22 1 25 0;
#X connect 23 0 24 1;
#X connect 23 1 34 1;
#X connect 24 0 26 0;
#X connect 25 0 34 1;
#X connect 26 0 27 0;
#X connect 26 1 28 0;
#X connect 27 0 41 0;
#X connect 28 0 38 0;
#X connect 29 1 12 0;
#X connect 30 1 13 0;
#X connect 31 0 32 0;
#X connect 32 0 16 0;
#X connect 33 0 34 0;
#X connect 34 0 23 0;
#X connect 39 0 40 0;
#X connect 40 0 42 0;
#X connect 41 0 43 0;
#X connect 42 0 35 0;
#X connect 42 0 45 0;
#X connect 43 0 37 0;
#X connect 44 0 42 0;
#X connect 45 0 43 0;
#X coords 0 -1 1 1 156 84 2 474 44;
#X restore 947 306 pd chvalue selector;
#X floatatom 947 401 5 0 0 0 - - -, f 5;
#X floatatom 994 401 5 0 0 0 - - -, f 5;
#X floatatom 1041 401 5 0 0 0 - - -, f 5;
#X floatatom 1088 401 5 0 0 0 - - -, f 5;
#X obj 28 635 r midichannel1;
#X obj 140 634 r midivalue1;
#X obj 240 634 r midichannel2;
#X obj 351 633 r midivalue2;
#X obj 13 355 key;
#X floatatom 13 377 5 0 0 0 - - -, f 5;
#X obj 13 404 - 49;
#X msg 700 41 14;
#X msg 884 41 16;
#X floatatom 28 657 5 0 0 0 - - -, f 5;
#X floatatom 140 656 5 0 0 0 - - -, f 5;
#X floatatom 240 656 5 0 0 0 - - -, f 5;
#X floatatom 351 655 5 0 0 0 - - -, f 5;
#X obj 43 730 ctlout;
#X obj 227 732 ctlout;
#X msg 1068 41 18;
#N canvas 0 22 450 300 (subpatch) 0;
#X array array1 1000 float 5 black #ff0000;
#A 0 255 37 128 255 37 128 255 37 128 255 37 128 255 36 128 255 36
128 255 36 128 255 36 128 255 0 128 255 35 128 255 35 128 255 35 128
255 34 128 255 34 128 255 34 128 255 33 128 255 32 128 255 31 128 255
31 128 255 30 128 255 30 48 1 0 16 31 15 99 0 0 0 31 83 97 0 0 0 32
50 0 128 0 1 19 33 18 0 24 2 19 34 19 38 1 3 19 35 20 0 1 4 19 35 21
87 0 5 19 36 85 22 0 0 6 0 36 23 0 0 7 19 83 36 0 4 1 8 32 36 2 85
30 1 9 26 36 85 4 0 9 21 36 85 0 47 9 22 36 85 0 56 9 23 37 81 4 8
2 10 38 63 31 17 3 11 25 39 33 15 4 12 26 40 35 4 46 13 27 41 37 4
33 14 27 42 76 0 127 7 15 10 43 41 7 8 15 28 43 42 6 9 15 29 43 43
2 4 15 85 44 44 2 4 16 31 7 44 45 2 9 32 17 7 46 2 5 61 18 33 47 78
6 0 9 19 48 74 77 0 9 20 35 49 76 0 10 21 36 50 75 8 3 23 37 51 82
60 0 24 38 52 73 10 5 25 39 53 79 72 0 0 26 40 54 71 0 13 27 41 55
70 0 11 28 42 56 68 29 81 29 42 57 66 0 29 30 42 57 65 0 0 0 31 42
57 64 0 18 32 42 19 57 0 16 0 43 33 60 57 17 0 77 34 44 58 58 18 0
34 45 59 56 0 0 35 46 60 54 0 0 23 36 61 83 52 0 24 37 48 62 50 0 25
38 49 62 48 23 0 39 50 62 46 40 0 40 51 62 44 0 0 41 52 62 64 42 0
29 42 53 62 40 43 30 43 54 62 38 44 0 44 54 62 36 0 0 45 54 62 34 31
30 46 55 26 32 62 0 1 56 47 27 62 87 32 0 48 56 62 28 0 1 36 80 62
0 26 1 37 50 58 62 24 1 0 51 59 63 1 0 1 52 60 64 2 0 0 53 61 65 90
3 1 41 54 65 0 4 1 42 55 63 66 5 1 0 56 64 66 6 1 0 57 65 66 7 0 1
58 66 66 11 8 0 46 60 0 66 9 1 120 61 68 66 10 0 48 62 40 34 11 66
46 0 70 63 4 66 12 0 50 64 71 66 13 2 51 64 72 65 14 0 2 64 73 63 100
15 2 0 65 5 127 16 3 0 65 75 127 17 0 55 65 75 127 19 4 27 0 128 0
21 4 21 67 75 127 23 55 78 68 75 127 44 25 0 0 69 75 45 27 0 60 70
75 46 29 4 0 71 76 46 31 0 58 72 77 0 32 0 76 73 78 47 0 33 0 0 7 73
48 119 34 60 0 73 80 0 79 35 0 66 73 81 0 36 7 67 73 82 0 37 0 28 74
0 111 38 9 8 75 82 110 39 40 0 76 82 109 0 40 94 28 77 82 0 41 12 28
78 82 0 42 0 28 79 82 52 43 61 68 80 82 0 77 44 0 80 0 52 106 45 13
0 80 3 52 46 0 3 0 128 52 47 0 76 80 1 52 48 0 70 80 1 0 3 94 49 4
1 79 86 93 50 0 1 4 88 91 51 14 14 1 90 0 0 53 15 1 91 0 0 54 16 1
0 92 85 56 17 1 52 93 39 58 0 1 2 93 39 59 19 1 2 1 39 60 76 1 2 2
77 52 61 19 2 1 3 52 62 19 85 1 4 53 63 39 79 1 5 54 64 39 19 1 6 77
78 65 38 1 7 10 56 66 0 3 1 8 57 39 0 67 1 8 85 63 40 68 1 8 57 1 41
69 1 9 57 100 0 128 1 10 58 63 43 71 1 0 11 59 44 4 72 1 12 60 53 45
73 1 12 61 0 77 74 1 6 62 12 47 75 1 44 7 12 63 76 48 0 80 12 64 77
49 21 1 12 19 65 78 0 8 1 13 66 79 23 102 1 14 67 80 10 103 2 15 68
81 9 92 2 16 69 109 35 82 2 17 20 70 33 83 2 26 18 71 31 84 11 2 18
72 30 19 85 2 18 73 18 28 86 2 0 128 21 26 87 2 18 73 18 25 88 3 18
14 73 0 83 89 4 14 18 23 0 90 87 14 18 0 73 91 0 14 1 19 73 91 26 115
2 20 73 91 26 104 8 20 73 91 0 27 9 20 4 0 91 0 128 74 33 5 91 0 17
10 20 6 0 0 91 10 21 6 0 79 90 11 22 7 0 11 107 11 23 8 0 8;
#X coords 0 127 999 0 200 140 1;
#X restore 903 511 graph;
#N canvas 0 22 450 300 (subpatch) 0;
#X array array2 1000 float 5 black #ff0000;
#A 0 255 37 128 255 37 128 255 37 128 255 37 128 255 36 128 255 36
128 255 36 128 255 36 128 255 0 128 255 35 128 255 35 128 255 35 128
255 34 128 255 34 128 255 34 128 255 33 128 255 32 128 255 31 128 255
31 128 255 30 128 255 30 0 31 92 65 19 23 37 32 90 19 18 66 36 89 89
20 42 67 0 128 88 21 41 68 34 91 86 23 22 15 34 48 92 85 23 15 70 33
93 98 24 74 71 32 25 83 25 37 72 31 25 82 26 36 0 30 26 81 17 27 77
29 27 98 80 28 46 76 28 28 79 29 79 0 128 29 77 3 32 80 15 26 43 4
76 82 15 25 102 44 75 31 84 23 103 58 74 32 85 21 32 0 73 10 33 15
19 60 72 9 34 93 17 0 106 71 35 13 15 17 107 0 36 22 13 18 108 69 37
0 128 37 110 68 5 9 86 42 38 67 7 39 9 86 0 38 5 40 8 87 6 39 3 41
93 88 6 1 61 42 17 89 0 41 59 43 15 0 90 42 116 57 0 44 91 4 98 0 55
45 92 3 44 0 59 53 93 2 0 0 60 51 94 2 46 0 61 81 46 0 95 68 121 47
46 9 96 48 123 45 47 8 2 97 2 43 0 48 2 98 3 125 42 49 2 98 0 126 40
50 53 99 0 0 38 52 6 100 0 51 36 54 6 101 0 52 34 87 55 0 102 13 53
32 0 0 102 1 54 31 57 84 102 2 55 102 12 30 1 3 56 45 1 0 1 4 57 127
0 28 60 83 58 0 0 26 84 2 0 58 0 24 0 0 7 102 107 127 22 4 1 102 8
127 20 5 1 102 47 127 97 61 2 102 60 127 16 61 3 101 61 127 14 0 8
14 4 9 62 12 10 16 5 86 63 10 12 81 5 18 64 8 64 14 5 19 65 7 65 15
124 5 66 6 0 78 66 5 67 118 6 77 67 6 24 68 98 6 76 7 25 69 119 0 6
8 26 70 0 24 6 21 87 71 110 22 5 70 0 72 87 109 4 71 11 77 73 108 2
0 12 30 74 21 1 127 13 31 75 0 0 44 26 14 76 0 91 126 75 28 15 0 77
65 0 30 34 16 78 21 0 31 10 17 79 98 0 32 10 18 36 0 2 33 101 19 0
81 127 77 54 35 20 0 69 29 52 36 21 0 26 23 51 38 22 84 90 32 0 86
23 14 85 0 0 48 24 42 86 0 29 46 25 43 0 0 84 0 128 26 88 0 82 115
48 27 89 123 80 32 0 28 46 90 78 33 1 29 47 91 123 76 2 54 48 30 92
74 88 56 48 31 0 0 4 58 37 32 48 93 5 99 60 34 48 93 38 87 62 18 35
93 68 10 7 102 36 93 0 1 0 8 37 0 91 124 34 0 38 51 93 0 0 8 39 52
94 0 43 8 72 40 0 58 44 26 8 41 1 96 56 25 9 42 55 2 54 46 10 43 56
3 124 0 11 80 44 4 124 50 12 82 45 100 87 5 6 83 18 31 46 6 50 14 85
60 47 7 51 0 128 33 48 8 52 14 88 34 50 61 9 12 89 14 84 61 10 40 89
14 53 11 106 54 40 15 92 12 107 54 40 16 89 56 13 84 40 7 0 57 14 108
40 39 18 58 15 108 40 50 19 59 16 108 104 40 20 97 17 108 102 40 21
88 61 18 76 40 89 22 61 19 109 40 46 23 62 44 110 20 0 24 63 45 1 21
111 25 104 46 64 22 112 26 39 103 65 23 113 0 26 100 48 24 114 37 0
26 0 67 25 35 0 42 26 68 26 0 40 43 88 69 27 117 40 27 27 70 0 128
4 40 27 14 29 119 83 40 28 14 30 120 67 40 0 29 73 0 96 0 23 30 74
32 120 0 21 31 75 33 121 76 42 32 43 34 122 74 43 33 14 77 58 0 122
15 34 78 58 36 122 13 35 40 3 37 121 11 36 39 3 80 38 46 37 39 4 81
39 120 56 39 92 82 40 120 5 48 39 17 40 120 3 49 40 4 40 119 1 50 41
4 85 40 54 50 36 42 86 40 117 50 0 128 87 40 96 51 36 44 0 40 115 19
51 45 17 40 114 50 51 0 46 89 0 113 52 21 47 89 40 112 0 22 48 89 11
111 40 54 49 31 90 18 40 110 50 31 11 91 40 109 4 98 11 74 40 0 128
52 31 11 40 107 0 6 30 53 94 40 41 7 30 54 95 40 105 0 29 55 96 40
104 9 18 55 97 40;
#X coords 0 127 999 0 200 140 1;
#X restore 901 684 graph;
#X obj 695 674 f;
#X obj 737 672 + 1;
#X floatatom 743 591 5 0 0 0 - - -, f 5;
#X floatatom 787 659 5 0 0 0 - - -, f 5;
#X obj 695 712 mod 1000;
#X obj 695 636 metro 10;
#X obj 695 750 tabwrite array2;
#X obj 529 674 f;
#X obj 571 672 + 1;
#X floatatom 577 591 5 0 0 0 - - -, f 5;
#X floatatom 621 659 5 0 0 0 - - -, f 5;
#X obj 529 712 mod 1000;
#X obj 529 636 metro 10;
#X obj 529 750 tabwrite array1;
#X msg 1095 264 30;
#X msg 897 264 22;
#X msg 699 264 20;
#X obj 1151 240 bng 15 250 50 0 empty empty empty 17 7 0 10 -262144
-1 -1;
#X obj 1153 11 bng 15 250 50 0 empty empty empty 17 7 0 10 -262144
-1 -1;
#X obj 555 234 ctlout;
#X obj 650 235 ctlout;
#X obj 763 238 ctlout;
#X obj 858 239 ctlout;
#X obj 962 236 ctlout;
#X obj 1057 237 ctlout;
#X obj 956 438 ctlout;
#X obj 1051 439 ctlout;
#X obj 768 441 ctlout;
#X obj 863 442 ctlout;
#X obj 562 441 ctlout;
#X obj 657 442 ctlout;
#X connect 1 0 7 0;
#X connect 1 0 8 0;
#X connect 2 0 3 0;
#X connect 3 0 5 1;
#X connect 3 0 9 1;
#X connect 4 0 5 2;
#X connect 4 0 9 0;
#X connect 5 0 19 0;
#X connect 6 0 5 0;
#X connect 6 0 10 0;
#X connect 7 0 4 0;
#X connect 8 0 2 0;
#X connect 9 0 10 1;
#X connect 10 0 11 0;
#X connect 11 0 14 0;
#X connect 11 1 13 0;
#X connect 11 2 12 0;
#X connect 15 0 17 0;
#X connect 16 0 15 1;
#X connect 17 0 18 0;
#X connect 18 0 36 0;
#X connect 18 1 17 1;
#X connect 18 2 16 0;
#X connect 19 0 15 0;
#X connect 19 1 17 1;
#X connect 21 0 6 0;
#X connect 22 0 3 0;
#X connect 23 0 47 0;
#X connect 24 0 53 0;
#X connect 25 0 58 0;
#X connect 26 0 63 0;
#X connect 27 0 68 0;
#X connect 28 0 73 0;
#X connect 29 0 37 0;
#X connect 35 0 38 0;
#X connect 36 0 35 0;
#X connect 37 0 35 1;
#X connect 38 0 39 0;
#X connect 38 1 40 0;
#X connect 38 2 41 0;
#X connect 38 3 42 0;
#X connect 38 4 43 0;
#X connect 38 5 44 0;
#X connect 46 0 52 0;
#X connect 46 0 36 0;
#X connect 46 0 108 0;
#X connect 46 0 101 0;
#X connect 47 0 48 0;
#X connect 47 1 49 0;
#X connect 47 2 50 0;
#X connect 47 3 51 0;
#X connect 48 0 115 1;
#X connect 49 0 115 0;
#X connect 50 0 116 1;
#X connect 51 0 116 0;
#X connect 53 0 54 0;
#X connect 53 1 55 0;
#X connect 53 2 56 0;
#X connect 53 3 57 0;
#X connect 54 0 117 1;
#X connect 55 0 117 0;
#X connect 56 0 118 1;
#X connect 57 0 118 0;
#X connect 58 0 59 0;
#X connect 58 1 60 0;
#X connect 58 2 61 0;
#X connect 58 3 62 0;
#X connect 59 0 119 1;
#X connect 60 0 119 0;
#X connect 61 0 120 1;
#X connect 62 0 120 0;
#X connect 63 0 64 0;
#X connect 63 1 65 0;
#X connect 63 2 66 0;
#X connect 63 3 67 0;
#X connect 64 0 125 1;
#X connect 65 0 125 0;
#X connect 66 0 126 1;
#X connect 67 0 126 0;
#X connect 68 0 69 0;
#X connect 68 1 70 0;
#X connect 68 2 71 0;
#X connect 68 3 72 0;
#X connect 69 0 123 1;
#X connect 70 0 123 0;
#X connect 71 0 124 1;
#X connect 72 0 124 0;
#X connect 73 0 74 0;
#X connect 73 1 75 0;
#X connect 73 2 76 0;
#X connect 73 3 77 0;
#X connect 74 0 121 1;
#X connect 75 0 121 0;
#X connect 76 0 122 1;
#X connect 77 0 122 0;
#X connect 78 0 87 0;
#X connect 79 0 88 0;
#X connect 80 0 89 0;
#X connect 81 0 90 0;
#X connect 82 0 83 0;
#X connect 83 0 84 0;
#X connect 84 0 29 0;
#X connect 85 0 47 1;
#X connect 86 0 53 1;
#X connect 87 0 91 1;
#X connect 88 0 91 0;
#X connect 89 0 92 1;
#X connect 90 0 92 0;
#X connect 93 0 58 1;
#X connect 96 0 97 0;
#X connect 96 0 100 0;
#X connect 97 0 96 1;
#X connect 98 0 101 1;
#X connect 99 0 100 1;
#X connect 100 0 102 1;
#X connect 101 0 96 0;
#X connect 103 0 104 0;
#X connect 103 0 107 0;
#X connect 104 0 103 1;
#X connect 105 0 108 1;
#X connect 106 0 107 1;
#X connect 107 0 109 1;
#X connect 108 0 103 0;
#X connect 110 0 73 1;
#X connect 111 0 68 1;
#X connect 112 0 63 1;
#X connect 113 0 110 0;
#X connect 113 0 112 0;
#X connect 113 0 111 0;
#X connect 114 0 113 0;
#X connect 114 0 93 0;
#X connect 114 0 86 0;
#X connect 114 0 85 0;
